<?xml version="1.0" standalone="no"?>
<!DOCTYPE svg PUBLIC "-//W3C//DTD SVG 20010904//EN"
 "http://www.w3.org/TR/2001/REC-SVG-20010904/DTD/svg10.dtd">
<svg version="1.0" xmlns="http://www.w3.org/2000/svg"
 width="512.000000pt" height="512.000000pt" viewBox="0 0 512.000000 512.000000"
 preserveAspectRatio="xMidYMid meet">
<metadata>
Created by potrace 1.16, written by Peter Selinger 2001-2019
</metadata>
<g transform="translate(0.000000,512.000000) scale(0.100000,-0.100000)"
fill="#000000" stroke="none">
<path d="M0 2560 l0 -2560 2560 0 2560 0 0 2560 0 2560 -2560 0 -2560 0 0
-2560z m1633 1656 c389 -76 600 -318 573 -657 -11 -138 -57 -244 -143 -333
-56 -58 -152 -128 -199 -146 -33 -13 -27 -19 44 -45 87 -32 191 -97 253 -159
90 -89 141 -204 154 -346 4 -36 10 -69 15 -74 9 -9 8 -10 280 199 107 83 263
202 345 265 159 121 181 138 425 326 190 147 294 226 430 330 58 44 182 140
277 212 94 73 174 132 178 132 4 0 -8 -12 -26 -27 -19 -16 -41 -35 -49 -43
-24 -23 -165 -149 -380 -341 -439 -390 -622 -553 -695 -619 -27 -25 -70 -63
-95 -84 -25 -22 -70 -62 -101 -90 -31 -28 -91 -82 -135 -121 -43 -38 -123
-110 -177 -160 -54 -49 -137 -123 -185 -164 -48 -40 -145 -126 -215 -189 -71
-64 -144 -127 -163 -140 -114 -77 -307 -136 -494 -152 -63 -5 -409 -10 -767
-10 l-653 0 -2 638 c-2 350 -2 904 0 1230 l2 593 708 -4 c617 -3 718 -6 795
-21z m2852 -856 c4 -6 11 -8 16 -5 5 4 9 2 9 -3 0 -5 10 -13 22 -19 15 -6 18
-12 10 -17 -7 -4 -12 -2 -12 3 0 6 -9 11 -19 11 -10 0 -21 7 -25 15 -3 9 -19
15 -41 15 -34 0 -43 -13 -36 -53 1 -5 -3 -6 -9 -2 -6 4 -9 -3 -7 -17 1 -17 -4
-24 -21 -26 -20 -3 -22 -8 -18 -40 3 -20 3 -29 0 -19 -3 9 -13 17 -22 16 -11
0 -12 -2 -4 -6 6 -2 11 -14 11 -26 -1 -17 -2 -18 -6 -4 -7 25 -22 21 -17 -5 2
-13 2 -18 -2 -11 -3 7 -12 9 -20 6 -9 -3 -14 2 -14 17 0 11 4 19 9 15 5 -3 13
-1 16 5 4 6 1 9 -6 8 -6 -2 -14 3 -17 11 -2 8 0 11 6 7 5 -3 13 1 16 10 3 8 2
13 -3 10 -5 -3 -12 1 -15 10 -8 20 12 46 27 37 6 -4 8 0 4 9 -3 9 2 23 13 33
14 13 19 13 23 3 3 -9 7 -8 12 5 6 13 19 17 60 17 30 0 57 -5 60 -10z m405
-175 c0 -168 1 -175 20 -175 17 0 20 -7 20 -45 0 -38 -3 -45 -20 -45 -18 0
-20 -7 -20 -65 l0 -65 -55 0 -56 0 2 60 c1 33 0 63 -3 66 -3 3 -25 6 -49 6
-33 0 -39 3 -24 9 19 7 19 8 -2 8 -13 1 -23 7 -23 16 0 9 6 12 18 9 14 -5 14
-3 -2 10 -11 9 -24 16 -29 16 -4 0 -5 5 -1 11 4 8 9 7 15 -2 6 -10 9 -11 9 -1
0 8 16 12 48 12 l47 0 -4 117 c-3 94 -5 112 -13 90 -6 -18 -15 -26 -24 -23 -7
3 -16 0 -20 -6 -4 -6 -3 -8 4 -4 14 8 24 -8 16 -28 -5 -14 -9 -14 -22 -4 -13
11 -14 10 -4 -9 13 -23 -1 -73 -21 -73 -5 0 -7 -7 -3 -15 6 -18 -30 -46 -51
-38 -7 3 -11 8 -9 11 3 3 1 11 -5 18 -7 8 -6 14 2 20 8 4 9 3 5 -4 -4 -7 -3
-12 3 -12 5 0 12 6 15 13 3 6 3 2 0 -10 -8 -32 14 -29 26 3 13 33 13 34 -7 28
-11 -4 -14 -3 -7 3 6 4 10 23 9 41 -1 17 3 32 9 32 6 0 6 4 -2 8 -14 9 -6 42
10 42 5 0 6 -6 2 -12 -5 -9 -2 -9 9 1 18 14 23 26 8 16 -5 -3 -12 -1 -16 5 -3
5 -2 10 4 10 6 0 8 7 5 15 -4 8 -1 15 5 15 6 0 10 3 9 8 -2 4 3 26 11 50 l14
42 74 0 73 0 0 -175z m-345 119 c9 3 14 2 10 -3 -3 -5 1 -11 7 -14 7 -2 -1 -3
-18 -2 -17 1 -36 5 -42 9 -7 4 -12 2 -12 -5 0 -7 -3 -9 -6 -6 -4 4 -1 13 6 22
10 12 16 13 26 4 8 -6 21 -9 29 -5z m-69 -110 c0 -48 -3 -70 -9 -62 -5 8 -6 0
-2 -22 4 -19 7 -43 7 -53 -1 -15 2 -16 14 -6 12 9 12 15 2 27 -10 13 -10 14 0
8 6 -4 17 -4 24 0 8 5 6 10 -8 15 -18 7 -18 8 2 8 12 1 27 8 34 16 7 9 15 13
18 11 4 -5 -27 -48 -69 -94 -23 -25 -43 -20 -34 9 4 10 2 27 -4 36 -6 10 -11
14 -11 8 0 -5 -6 1 -13 15 -10 21 -10 28 2 42 8 10 17 15 19 13 3 -3 -1 -11
-7 -19 -9 -11 -9 -16 0 -22 7 -4 9 -3 5 4 -3 6 1 15 10 20 14 8 14 11 1 24
-11 10 -12 19 -5 32 6 10 8 30 6 46 -3 17 0 26 6 24 6 -2 11 -36 12 -80z m104
66 c0 -5 -4 -10 -10 -10 -5 0 -10 5 -10 10 0 6 5 10 10 10 6 0 10 -4 10 -10z
m-63 -82 c-3 -20 -4 -21 -11 -5 -5 9 -5 29 0 45 7 25 8 26 11 5 3 -13 3 -33 0
-45z m59 33 c0 -11 -4 -17 -8 -15 -4 3 -8 12 -8 20 0 8 4 14 8 14 4 0 8 -9 8
-19z m-199 -33 c-3 -8 -6 -5 -6 6 -1 11 2 17 5 13 3 -3 4 -12 1 -19z m293 -42
c0 -3 -4 -8 -10 -11 -5 -3 -10 -1 -10 4 0 6 5 11 10 11 6 0 10 -2 10 -4z
m-276 -41 c-4 -8 -1 -15 5 -15 15 0 14 -47 0 -56 -8 -5 -10 1 -5 19 3 14 2 28
-3 31 -5 3 -9 0 -8 -7 1 -34 -4 -46 -17 -41 -8 3 -17 1 -21 -5 -3 -6 -12 -11
-18 -11 -7 0 2 13 18 28 17 15 24 23 16 17 -12 -8 -13 -7 -6 5 10 16 38 50 42
50 1 0 0 -7 -3 -15z m273 9 c-3 -3 -12 -4 -19 -1 -8 3 -5 6 6 6 11 1 17 -2 13
-5z m-217 -98 c-1 -19 -2 -19 -11 -3 -12 21 -26 22 -26 2 0 -8 4 -12 8 -10 4
3 10 -2 13 -11 3 -8 2 -12 -4 -9 -6 3 -10 1 -10 -6 0 -8 -5 -6 -12 4 -12 16
-14 16 -27 -5 -13 -21 -13 -22 1 -10 13 10 17 10 21 -3 4 -8 1 -14 -5 -12 -6
1 -13 -4 -15 -10 -3 -7 0 -13 7 -13 6 0 8 -5 5 -11 -5 -6 -11 -4 -19 7 -12 15
-13 15 -11 -6 2 -26 24 -38 71 -39 17 -1 37 -7 43 -15 17 -21 2 -46 -28 -46
-14 0 -53 0 -86 0 -33 1 -64 5 -69 10 -11 11 -15 120 -4 114 5 -3 8 6 8 19 0
20 4 23 23 20 17 -3 35 5 62 30 41 37 65 39 65 3z m-80 6 c0 -12 -23 -32 -37
-32 -7 0 -13 5 -13 11 0 5 4 8 9 5 5 -3 11 1 15 9 6 16 26 21 26 7z m237 -24
c-3 -8 -6 -5 -6 6 -1 11 2 17 5 13 3 -3 4 -12 1 -19z m53 -18 c0 -5 -2 -10 -4
-10 -3 0 -8 5 -11 10 -3 6 -1 10 4 10 6 0 11 -4 11 -10z m-15 -40 c3 -5 -1
-10 -10 -10 -9 0 -13 5 -10 10 3 6 8 10 10 10 2 0 7 -4 10 -10z m-85 -65 c0
-8 5 -15 11 -15 6 0 9 -12 7 -27 -3 -24 -8 -28 -38 -30 -19 -1 -27 1 -18 3 18
5 34 56 23 74 -3 5 -1 10 4 10 6 0 11 -7 11 -15z m-44 -30 c1 -8 -2 -15 -7
-15 -5 0 -9 10 -9 22 0 23 12 17 16 -7z m439 -237 c3 -13 4 -565 3 -1228 l-3
-1205 -337 -3 -338 -2 0 695 c0 382 -3 695 -7 695 -7 0 -166 -242 -518 -785
-55 -85 -105 -155 -111 -155 -6 0 -51 62 -100 137 -49 75 -138 213 -199 305
-60 92 -157 240 -215 328 -57 88 -108 160 -112 160 -4 0 -8 -310 -8 -690 l0
-690 -330 0 -330 0 0 228 c0 231 -12 1325 -14 1329 -1 1 -374 -278 -829 -620
-456 -342 -838 -628 -850 -636 -27 -17 42 51 152 149 46 41 89 80 95 85 6 6
72 64 146 130 74 66 137 122 140 125 6 7 689 614 815 725 50 44 272 242 494
440 514 458 557 495 567 495 5 -1 83 -123 174 -272 91 -149 197 -321 235 -383
39 -62 92 -149 120 -194 27 -45 52 -81 55 -81 6 0 32 39 132 203 76 124 164
267 303 492 37 61 86 140 108 178 l41 67 358 0 358 0 5 -22z"/>
<path d="M790 3473 l0 -218 287 5 c265 5 292 7 333 26 25 11 60 35 77 53 88
88 61 250 -52 309 -69 36 -125 42 -387 42 l-258 0 0 -217z"/>
<path d="M790 2555 l0 -225 305 0 c181 0 324 4 355 11 70 15 139 64 167 119
20 37 23 56 20 107 -5 75 -33 124 -91 160 -72 47 -125 53 -453 53 l-303 0 0
-225z"/>
<path d="M4325 3331 c-6 -11 9 -23 19 -14 9 9 7 23 -3 23 -6 0 -12 -4 -16 -9z"/>
<path d="M4350 3305 c-7 -8 -8 -15 -2 -15 5 0 15 7 22 15 7 8 8 15 2 15 -5 0
-15 -7 -22 -15z"/>
<path d="M4297 3293 c-13 -12 -7 -21 11 -19 9 2 20 -2 24 -8 4 -6 10 -7 14 -4
3 4 -1 14 -10 23 -12 12 -16 13 -16 3 0 -10 -2 -10 -8 0 -5 7 -11 9 -15 5z"/>
<path d="M4370 3280 c0 -5 5 -10 10 -10 6 0 10 5 10 10 0 6 -4 10 -10 10 -5 0
-10 -4 -10 -10z"/>
<path d="M4325 3240 c3 -5 8 -10 11 -10 2 0 4 5 4 10 0 6 -5 10 -11 10 -5 0
-7 -4 -4 -10z"/>
<path d="M4697 3133 c-10 -9 -9 -33 1 -33 4 0 8 9 8 20 0 23 0 22 -9 13z"/>
<path d="M4733 2956 c1 -11 9 -21 17 -23 10 -3 11 -2 4 4 -6 4 -14 15 -17 23
-5 11 -6 9 -4 -4z"/>
<path d="M4342 2910 c0 -14 2 -19 5 -12 2 6 2 18 0 25 -3 6 -5 1 -5 -13z"/>
</g>
</svg>
